<svg width="18" height="18" viewBox="0 0 18 18" fill="none" xmlns="http://www.w3.org/2000/svg">
<path d="M12.6152 1.5H5.38523C3.78773 1.5 2.49023 2.805 2.49023 4.395V14.9625C2.49023 16.3125 3.45773 16.8825 4.64273 16.23L8.30273 14.1975C8.69273 13.98 9.32273 13.98 9.70523 14.1975L13.3652 16.23C14.5502 16.89 15.5177 16.32 15.5177 14.9625V4.395C15.5102 2.805 14.2127 1.5 12.6152 1.5ZM10.8752 8.55H7.12523C6.81773 8.55 6.56273 8.295 6.56273 7.9875C6.56273 7.68 6.81773 7.425 7.12523 7.425H10.8752C11.1827 7.425 11.4377 7.68 11.4377 7.9875C11.4377 8.295 11.1827 8.55 10.8752 8.55Z" fill="#171447"/>
</svg>
